<svg xmlns="http://www.w3.org/2000/svg" viewBox="0 0 750 500"><g id="freepik--background-complete--inject-139"><path d="M249.18,129.64H122.54V43H249.18Zm-125.64-1H248.18V44H123.54Z" style="fill:#ebebeb"></path><path d="M132.44,48.58a2.52,2.52,0,1,1-2.52-2.52A2.52,2.52,0,0,1,132.44,48.58Z" style="fill:#a6a6a6"></path><path d="M142.73,48.58a2.52,2.52,0,1,1-2.52-2.52A2.51,2.51,0,0,1,142.73,48.58Z" style="fill:#ebebeb"></path><path d="M153,48.58a2.52,2.52,0,1,1-2.52-2.52A2.52,2.52,0,0,1,153,48.58Z" style="fill:#F97316"></path><rect x="123.04" y="53.02" width="125.64" height="1" style="fill:#ebebeb"></rect><polygon points="96.1 359.21 95.1 359.21 95.1 233.71 68.37 197.23 68.37 128.73 69.37 128.73 69.37 196.9 96.1 233.38 96.1 359.21" style="fill:#ebebeb"></polygon><path d="M68.87,129.27a2.88,2.88,0,1,1,2.87-2.87A2.88,2.88,0,0,1,68.87,129.27Zm0-4.75a1.88,1.88,0,1,0,1.87,1.88A1.88,1.88,0,0,0,68.87,124.52Z" style="fill:#ebebeb"></path><polygon points="89.21 359.21 88.21 359.21 88.21 238.12 61.48 201.64 61.48 153.73 62.48 153.73 62.48 201.31 89.21 237.79 89.21 359.21" style="fill:#ebebeb"></polygon><path d="M62,154.27a2.88,2.88,0,1,1,2.88-2.88A2.88,2.88,0,0,1,62,154.27Zm0-4.75a1.88,1.88,0,1,0,1.88,1.87A1.87,1.87,0,0,0,62,149.52Z" style="fill:#ebebeb"></path><rect x="101.73" y="192.8" width="1" height="166.41" style="fill:#ebebeb"></rect><path d="M102.23,193.3a2.88,2.88,0,1,1,2.88-2.87A2.88,2.88,0,0,1,102.23,193.3Zm0-4.75a1.88,1.88,0,1,0,1.88,1.88A1.88,1.88,0,0,0,102.23,188.55Z" style="fill:#ebebeb"></path><polygon points="109.12 359.21 108.12 359.21 108.12 274.51 108.17 274.4 126.26 240.28 126.26 179.04 127.26 179.04 127.26 240.53 109.12 274.76 109.12 359.21" style="fill:#ebebeb"></polygon><path d="M126.76,179.54a2.88,2.88,0,1,1,2.88-2.87A2.88,2.88,0,0,1,126.76,179.54Zm0-4.75a1.88,1.88,0,1,0,1.88,1.88A1.88,1.88,0,0,0,126.76,174.79Z" style="fill:#ebebeb"></path><polygon points="115.47 359.21 114.47 359.21 114.47 278.16 114.53 278.05 135.86 240.32 135.86 200.04 136.86 200.04 136.86 240.58 115.47 278.43 115.47 359.21" style="fill:#ebebeb"></polygon><path d="M136.36,200.54a2.88,2.88,0,1,1,2.87-2.88A2.88,2.88,0,0,1,136.36,200.54Zm0-4.75a1.88,1.88,0,1,0,1.87,1.87A1.88,1.88,0,0,0,136.36,195.79Z" style="fill:#ebebeb"></path><polygon points="658.51 359.21 657.51 359.21 657.51 293.38 657.61 293.25 684.24 256.9 684.24 218.73 685.24 218.73 685.24 257.23 685.14 257.36 658.51 293.71 658.51 359.21" style="fill:#ebebeb"></polygon><path d="M684.74,219.27a2.88,2.88,0,1,1,2.88-2.87A2.88,2.88,0,0,1,684.74,219.27Zm0-4.75a1.88,1.88,0,1,0,1.88,1.88A1.88,1.88,0,0,0,684.74,214.52Z" style="fill:#ebebeb"></path><polygon points="665.4 359.21 664.4 359.21 664.4 297.79 691.13 261.31 691.13 243.73 692.13 243.73 692.13 261.64 692.03 261.77 665.4 298.12 665.4 359.21" style="fill:#ebebeb"></polygon><path d="M691.63,244.27a2.88,2.88,0,1,1,2.87-2.88A2.88,2.88,0,0,1,691.63,244.27Zm0-4.75a1.88,1.88,0,1,0,1.87,1.87A1.88,1.88,0,0,0,691.63,239.52Z" style="fill:#ebebeb"></path><rect x="650.88" y="252.8" width="1" height="106.41" style="fill:#ebebeb"></rect><path d="M651.38,253.3a2.88,2.88,0,1,1,2.87-2.87A2.88,2.88,0,0,1,651.38,253.3Zm0-4.75a1.88,1.88,0,1,0,1.87,1.88A1.88,1.88,0,0,0,651.38,248.55Z" style="fill:#ebebeb"></path><polygon points="645.49 359.21 644.49 359.21 644.49 304.76 626.35 270.53 626.35 209.04 627.35 209.04 627.35 270.28 645.49 304.51 645.49 359.21" style="fill:#ebebeb"></polygon><path d="M626.84,209.54a2.88,2.88,0,1,1,2.88-2.87A2.88,2.88,0,0,1,626.84,209.54Zm0-4.75a1.88,1.88,0,1,0,1.88,1.88A1.88,1.88,0,0,0,626.84,204.79Z" style="fill:#ebebeb"></path><polygon points="639.14 359.21 638.14 359.21 638.14 308.43 616.75 270.58 616.75 230.04 617.75 230.04 617.75 270.32 639.14 308.16 639.14 359.21" style="fill:#ebebeb"></polygon><path d="M617.25,230.54a2.88,2.88,0,1,1,2.87-2.88A2.88,2.88,0,0,1,617.25,230.54Zm0-4.75a1.88,1.88,0,1,0,1.87,1.87A1.88,1.88,0,0,0,617.25,225.79Z" style="fill:#ebebeb"></path><path d="M67.5,125.61a3.16,3.16,0,0,1,3.3,0l.85.49.87.44a3.12,3.12,0,0,1,1.84,2.73l.13,4.06,13.23-.41-.12-4.06A3.13,3.13,0,0,1,89.26,126a18.07,18.07,0,0,0,1.68-1,3.15,3.15,0,0,1,3.29-.21l3.57,1.91L104.06,115l-3.58-1.91a3.17,3.17,0,0,1-1.64-2.86,18.52,18.52,0,0,0-.06-2,3.12,3.12,0,0,1,1.46-3l3.45-2.15-7-11.25-3.47,2.15a3.14,3.14,0,0,1-3.29,0c-.28-.17-.56-.33-.85-.48s-.57-.3-.87-.44a3.14,3.14,0,0,1-1.84-2.74l-.13-4.07L73,86.73l.13,4.06a3.13,3.13,0,0,1-1.66,2.85c-.58.32-1.14.67-1.68,1a3.15,3.15,0,0,1-3.29.22L63,93,56.7,104.65l3.57,1.92a3.13,3.13,0,0,1,1.64,2.85q0,1,.06,2a3.13,3.13,0,0,1-1.46,3l-3.44,2.13,7,11.25Zm3.31-20.9a10.85,10.85,0,1,1,4.44,14.69A10.86,10.86,0,0,1,70.81,104.71Z" style="fill:#ebebeb"></path><path d="M674.24,225.29a2.21,2.21,0,0,1,2-1.08c.23,0,.46,0,.69,0s.46,0,.68,0a2.2,2.2,0,0,1,2,1.08l1.43,2.47,8-4.64-1.42-2.46a2.21,2.21,0,0,1,.08-2.32,12.71,12.71,0,0,0,.69-1.19,2.21,2.21,0,0,1,2-1.22h2.84v-9.28h-2.84a2.21,2.21,0,0,1-2-1.22,12.71,12.71,0,0,0-.69-1.19,2.19,2.19,0,0,1-.08-2.31l1.42-2.47-8-4.64-1.43,2.48a2.19,2.19,0,0,1-2,1.07h-1.37a2.17,2.17,0,0,1-2-1.08l-1.42-2.47-8,4.64,1.42,2.46a2.19,2.19,0,0,1-.08,2.31q-.37.59-.69,1.2a2.21,2.21,0,0,1-2,1.22h-2.84v9.28h2.84a2.21,2.21,0,0,1,2,1.22q.32.61.69,1.2a2.19,2.19,0,0,1,.08,2.31l-1.42,2.46,8,4.64Zm-4.88-14a7.6,7.6,0,1,1,7.61,7.6A7.61,7.61,0,0,1,669.36,211.29Z" style="fill:#ebebeb"></path><path d="M107.38,137.31a2.22,2.22,0,0,1,1.08,2.05c0,.23,0,.46,0,.68s0,.46,0,.69a2.2,2.2,0,0,1-1.07,2l-2.47,1.42,4.63,8,2.47-1.42a2.19,2.19,0,0,1,2.31.08q.58.38,1.2.69a2.21,2.21,0,0,1,1.22,2v2.84H126v-2.84a2.21,2.21,0,0,1,1.22-2q.62-.32,1.2-.69a2.19,2.19,0,0,1,2.31-.08l2.47,1.42,4.63-8-2.47-1.43a2.19,2.19,0,0,1-1.08-2c0-.23,0-.46,0-.69s0-.45,0-.68a2.23,2.23,0,0,1,1.08-2.05l2.47-1.42-4.63-8-2.46,1.42a2.19,2.19,0,0,1-2.31-.08,13,13,0,0,0-1.21-.69,2.21,2.21,0,0,1-1.22-2v-2.84h-9.27v2.84a2.21,2.21,0,0,1-1.22,2,13,13,0,0,0-1.21.69,2.19,2.19,0,0,1-2.31.08l-2.46-1.42-4.63,8Zm14-4.87a7.6,7.6,0,1,1-7.59,7.6A7.6,7.6,0,0,1,121.38,132.44Z" style="fill:#ebebeb"></path></g><g id="freepik--Plant--inject-139"><path d="M140.2,248.71c-3.8-3.72-8.71-8.22-14.52-6.62-5.46,1.51-7.55,7.48-8.53,12.44-1.26,6.41-2.24,12.88-3.26,19.32s-2,13-2.93,19.56q-.79,5.52-1.56,11c-.26,1.84-.52,3.69-.77,5.53s-.56,3.61-.65,5.43c0,.58.88.67,1,.11.71-3.07,1-6.26,1.45-9.38s.91-6.27,1.36-9.41c.91-6.23,1.86-12.45,2.79-18.67s1.91-12.45,2.91-18.67c.84-5.27,1.24-11.83,5.91-15.3a9,9,0,0,1,8.75-.82c3.07,1.17,5.53,3.37,7.94,5.55A.08.08,0,0,0,140.2,248.71Z" style="fill:#263238"></path><path d="M135,244.9s-7.77-2.79-11.6,2.88.75,20.07,36.1,28.21a99.72,99.72,0,0,0-8.5-32C143.42,227.5,129.91,233.76,135,244.9Z" style="fill:#F97316"></path><path d="M157.47,273.63a27.4,27.4,0,0,0-1.78-2.87c-.59-.91-1.19-1.82-1.79-2.72-.45-.68-.92-1.35-1.38-2,0-.16,0-.33.06-.5l.12-.92c.09-.66.19-1.32.28-2s.21-1.32.34-2a10.44,10.44,0,0,1,.46-2.08c0-.1-.14-.15-.15,0a8.12,8.12,0,0,1-.32,1.17l-.24.89c-.17.67-.33,1.35-.48,2s-.26,1.25-.37,1.88c-.05.3-.09.6-.13.9-.63-.89-1.28-1.78-1.94-2.66-1.88-2.47-3.86-4.85-5.92-7.17a.15.15,0,0,0,0-.07c.19-3.71.1-7.39.92-11,0-.1-.12-.16-.15-.06A38.16,38.16,0,0,0,143.71,255c-.73-.82-1.48-1.64-2.23-2.45q-2.58-2.77-5.27-5.46c-.07-.07-.19,0-.12.11,3,3.21,5.81,6.55,8.57,10a60.74,60.74,0,0,0-6.47.24c-2.39.18-4.77.48-7.15.81a.08.08,0,1,0,0,.16,65.52,65.52,0,0,1,7.14-.64c2.31-.1,4.6,0,6.91,0,1.49,1.85,3,3.7,4.41,5.58h-1.95c-1.08,0-2.15.1-3.22.19a47.85,47.85,0,0,0-6.53,1,.08.08,0,0,0,0,.15c2.17-.24,4.35-.45,6.53-.52,1.05,0,2.09,0,3.13,0h1.63a1.87,1.87,0,0,0,.89-.08c1,1.24,1.9,2.47,2.84,3.71.75,1,1.49,2,2.22,3s1.42,2.15,2.24,3.11A.08.08,0,0,0,157.47,273.63Z" style="fill:#263238"></path><path d="M138.38,252.93a23.88,23.88,0,0,0-3.78-.18c-1.26,0-2.53,0-3.79.08a.08.08,0,1,0,0,.16c1.28-.09,2.56-.12,3.84-.1s2.48.14,3.71.11A0,0,0,0,0,138.38,252.93Z" style="fill:#263238"></path><path d="M149.48,255.78c.14-1.2.29-2.42.55-3.61a.08.08,0,1,0-.16,0c-.18,1.19-.41,2.37-.58,3.56-.09.59-.17,1.19-.25,1.79a8.6,8.6,0,0,0-.14,1.68.11.11,0,0,0,.21,0,10.53,10.53,0,0,0,.18-1.68C149.34,256.93,149.41,256.36,149.48,255.78Z" style="fill:#263238"></path><path d="M147.15,242.41c-.31,1.17-.62,2.36-.83,3.56-.11.6-.21,1.21-.29,1.82a7.71,7.71,0,0,0-.12,1.79.05.05,0,0,0,.1,0,9.82,9.82,0,0,0,.27-1.71c.08-.58.17-1.17.27-1.75.22-1.24.44-2.46.75-3.67A.08.08,0,0,0,147.15,242.41Z" style="fill:#263238"></path><path d="M101.12,314.11c-.2-2.23-.42-4.45-.65-6.68-.46-4.4-1-8.79-1.59-13.18s-1.15-8.76-1.86-13.12a32,32,0,0,0-1.35-6,5.63,5.63,0,0,0-3.3-3.72c-4.16-1.44-7,2.87-8.64,5.93,0,.09.08.15.14.07,1-1.44,3.78-5.5,6.94-5.31,2.12.13,3.82,1.63,4.84,6.92,2.54,13.19,4.83,40,5.09,41.71.15.93.8.89.81-.1C101.56,318.48,101.31,316.29,101.12,314.11Z" style="fill:#263238"></path><path d="M84.85,275.73s3.64-12.83-4.4-6.41C67.07,280,66.6,303.24,66.6,303.24s23.78-13.81,26.73-22.92C97.74,266.75,84.85,275.73,84.85,275.73Z" style="fill:#F97316"></path><path d="M89.35,282c-1.86.37-3.76.62-5.64.89l-2.68.38c-.6.08-1.21.14-1.82.21,1.77-2.44,3.56-4.87,5.26-7.36.06-.09-.08-.19-.16-.11a54.3,54.3,0,0,0-4,4.58c-.35-1-.71-2-1.06-3s-.84-2.29-1.13-3.47a.08.08,0,0,0-.15,0c.32,1.18.55,2.38.87,3.56s.65,2.26,1,3.37c-.87,1.13-1.71,2.29-2.52,3.46-.41-1.16-.92-2.28-1.27-3.46a.08.08,0,0,0-.16.05c.43,1.3.66,2.65,1.06,4-.55.8-1.09,1.6-1.61,2.4-1,1.49-1.87,3-2.75,4.52a.35.35,0,0,0-.21.36c-1.5,2.6-2.93,5.24-4.34,7.9a.08.08,0,1,0,.14.07c1.41-2.62,3-5.18,4.61-7.7h0a4.32,4.32,0,0,1,.78-.15l.82-.18c.61-.13,1.22-.29,1.83-.44,1.21-.3,2.4-.58,3.63-.8.1,0,0-.17,0-.15-1.44.27-2.88.44-4.34.61-.69.08-1.37.16-2,.27l-.1,0q1.28-2,2.6-3.87c.86-1.25,1.75-2.49,2.64-3.72.83-.12,1.64-.33,2.46-.49l2.76-.54c1.84-.36,3.68-.77,5.53-1.08C89.5,282.17,89.45,282,89.35,282Z" style="fill:#263238"></path><path d="M75.06,283.3c-.11-.34-.21-.68-.32-1a19.92,19.92,0,0,1-.55-2.15c0-.1-.17-.06-.15,0,.16.73.33,1.45.49,2.17a14.54,14.54,0,0,0,.62,2.14.15.15,0,0,0,.28-.09C75.32,284,75.18,283.67,75.06,283.3Z" style="fill:#263238"></path><path d="M91.78,279.06c-1.08.17-2.17.24-3.27.34s-2.17.25-3.26.41c-.06,0-.06.1,0,.1,1.09-.08,2.18-.16,3.27-.31s2.17-.3,3.27-.38C91.89,279.22,91.88,279.05,91.78,279.06Z" style="fill:#263238"></path><path d="M118.62,297.85c-.43-9.45-1-18.88-2-28.3-.47-4.69-1-9.37-1.66-14a98,98,0,0,0-2.71-13.58,26,26,0,0,0-4.52-9.58,10.24,10.24,0,0,0-9.14-4c-4.13.51-7.47,3.11-10.35,5.95-3.23,3.17-6.19,6.64-9.18,10-.76.86-1.51,1.72-2.26,2.59-.06.08.05.19.12.11,2.93-3.36,6-6.63,9.15-9.75,2.94-2.89,6-6,10-7.23a10.28,10.28,0,0,1,5.84-.14,9.25,9.25,0,0,1,4,2.52c2.3,2.39,3.58,5.62,4.5,8.74,2.54,8.69,3.45,17.8,4.39,26.77,1,9.12,1.61,18.26,2.07,27.41s.82,18.42,1.71,27.59c.11,1.13.25,2.26.4,3.39.09.76,1.27.76,1.21,0C119.48,316.84,119,307.35,118.62,297.85Z" style="fill:#263238"></path><path d="M87.74,235.33s5.4-10-1-13.19S59,242.76,52.81,277.6c0,0,34.47-15.26,46.18-30.45S97.42,228.6,87.74,235.33Z" style="fill:#F97316"></path><path d="M92.81,243.45c-3.87,0-7.74-.29-11.61-.26.72-.84,1.45-1.67,2.18-2.5a34.93,34.93,0,0,0,3-3.52c0-.08-.06-.19-.14-.13A27.11,27.11,0,0,0,83.34,240c-1,1-1.94,2.07-2.9,3.11-1.48,1.6-2.93,3.23-4.38,4.86,0-.16,0-.32,0-.47,0-.68,0-1.36,0-2,0-1.31,0-2.62,0-3.94,0-2.66,0-5.34.2-8,0-.1-.15-.1-.16,0-.18,2.67-.46,5.33-.59,8-.06,1.31-.09,2.62-.11,3.94,0,.68,0,1.36,0,2,0,.36,0,.76,0,1.14-.22.25-.46.5-.68.76-3.09,3.53-6,7.18-8.9,10.9,0-.2,0-.41,0-.61,0-.41-.09-.82-.13-1.23-.1-.89-.22-1.78-.36-2.66s-.25-1.66-.39-2.49-.39-1.88-.46-2.82a.08.08,0,1,0-.15,0,26.92,26.92,0,0,1,.32,2.83l.24,2.56c.07.86.15,1.71.24,2.56l.12,1.23c0,.21.05.41.07.62a1.12,1.12,0,0,0,.17.48c-.49.64-1,1.28-1.47,1.93-2,2.58-3.88,5.2-5.8,7.81-.06.08.06.2.12.11,1.82-2.37,3.69-4.69,5.58-7,1.42.06,2.87,0,4.29-.07s3,0,4.48,0c.1,0,.1-.17,0-.16l-4.49.05c-1.36,0-2.75-.06-4.11,0,1.66-2,3.35-4,5-6,.61-.74,1.23-1.47,1.85-2.2a8.33,8.33,0,0,0,1.73.06h2l3.82-.06c2.63,0,5.26-.13,7.89-.13a.08.08,0,0,0,0-.16c-2.64,0-5.27-.15-7.9-.21-1.28,0-2.55-.08-3.83-.1l-2,0c-.38,0-.78,0-1.18,0l4.35-5.14a.21.21,0,0,0,.08-.1c1.41-1.66,2.82-3.33,4.25-5,.2-.23.4-.45.59-.68,4,.13,8-.14,12-.06C92.92,243.61,92.92,243.45,92.81,243.45Z" style="fill:#263238"></path><path d="M90.83,250.3h-.94a.07.07,0,1,0,0,.14h.93A.08.08,0,0,0,90.83,250.3Z" style="fill:#263238"></path><path d="M88.74,250.31c-1.24,0-2.48,0-3.72-.07l-1.86-.06a6.67,6.67,0,0,0-1.73,0c-.06,0-.05.1,0,.11a6.74,6.74,0,0,0,1.74.12l1.86,0c1.24,0,2.48,0,3.72,0C88.85,250.47,88.85,250.32,88.74,250.31Z" style="fill:#263238"></path><path d="M77.91,262a51.4,51.4,0,0,0-7.63-.69s0,.05,0,.06c2.54.24,5.07.37,7.59.78C78,262.12,78,262,77.91,262Z" style="fill:#263238"></path><path d="M67.54,250.86c0-.22-.05-.45-.08-.67-.06-.5-.14-1-.22-1.49-.15-.95-.31-1.89-.49-2.83,0-.09-.17-.07-.16,0,.12,1,.23,2,.32,2.93l.12,1.44a4.11,4.11,0,0,0,.19,1.36.19.19,0,0,0,.34-.05A1.89,1.89,0,0,0,67.54,250.86Z" style="fill:#263238"></path><path d="M118.28,222.5c-1.24-2.3-2.81-5.33-5.89-5.14-2.54.16-3.69,2.76-4.23,4.9-1.68,6.64-1.8,13.63-2.12,20.43-.7,14.37-1.32,28.76-1.41,43.14q0,6,0,12c0,4.06,0,8.16.28,12.22a.3.3,0,0,0,.6,0c0-3.48-.1-7-.11-10.44s0-6.79.06-10.18q.17-10.32.55-20.63c.26-6.83.56-13.66.85-20.49q.21-5.12.44-10.24c.15-3.3.29-6.61.67-9.9.21-1.84.48-3.69.87-5.5a7.69,7.69,0,0,1,1.59-3.69,3.47,3.47,0,0,1,4.49-.32,9.48,9.48,0,0,1,3.19,4C118.19,222.68,118.33,222.59,118.28,222.5Z" style="fill:#263238"></path><path d="M117.44,221.4s-2.53-8.94,3.07-4.47c9.32,7.45,9.65,23.64,9.65,23.64s-16.57-9.63-18.63-16C108.46,215.14,117.44,221.4,117.44,221.4Z" style="fill:#F97316"></path><path d="M126.67,233.93c-.15-.25-.31-.49-.47-.73a5,5,0,0,0,0-.77c0-.38,0-.77,0-1.15,0-.76,0-1.51.08-2.27,0-.1-.16-.09-.16,0q-.06,1.11-.09,2.22c0,.37,0,.74,0,1.11,0,.15,0,.31,0,.48-.65-1-1.32-2-2-3-.2-.29-.41-.56-.61-.85a15.82,15.82,0,0,1,0-2.92c0-1,0-2.07.06-3.11a.08.08,0,0,0-.16,0c0,1.08-.08,2.16-.14,3.24a19.86,19.86,0,0,0-.06,2.31c-1.6-2.17-3.3-4.27-5-6.35,0-.07-.18,0-.12.1,1.06,1.34,2.08,2.72,3.08,4.12-2-.45-3.93-.72-5.91-1-.1,0-.14.14,0,.15,2.1.32,4.16.85,6.23,1.3h0c.79,1.11,1.58,2.24,2.35,3.36.32.46.63.93.94,1.39h-.08c-.22,0-.43-.07-.65-.09-.46-.06-.92-.09-1.38-.13-1-.08-1.91-.13-2.87-.18-.1,0-.09.16,0,.16.94,0,1.88.1,2.81.2.5.05,1,.12,1.49.18l.64.07.19,0c.53.78,1.07,1.56,1.59,2.35.94,1.38,1.78,2.86,2.77,4.2a.08.08,0,0,0,.13-.08A41,41,0,0,0,126.67,233.93Z" style="fill:#263238"></path><path d="M122.55,223.83c0-.35,0-.7,0-1.05a16.11,16.11,0,0,1,.09-2.19.08.08,0,1,0-.15,0c0,.72-.08,1.44-.12,2.17,0,.36,0,.72,0,1.08v.5a1.8,1.8,0,0,0,0,.52.07.07,0,0,0,.14,0,1.54,1.54,0,0,0,0-.48Z" style="fill:#263238"></path><path d="M120.5,227.53c-.62-.1-1.25-.14-1.87-.19s-1.36-.12-2-.2a.08.08,0,1,0,0,.15c1.31.09,2.61.32,3.92.37C120.56,227.66,120.57,227.54,120.5,227.53Z" style="fill:#263238"></path><path d="M125.7,227.59c0,.06,0,.26,0,.34v.91c0,.21,0,.42,0,.63a1.44,1.44,0,0,0,0,.55,0,0,0,0,0,.06,0,.59.59,0,0,0,0-.26c0-.1,0-.2,0-.29v-.63c0-.21,0-.41,0-.62v-.29c0-.09,0-.27,0-.35S125.6,227.44,125.7,227.59Z" style="fill:#263238"></path><path d="M118.66,270.21c-3.48-2.61-6.61-6.37-11.3-6.55-3.87-.16-6.58,2.76-8.13,6A34.55,34.55,0,0,0,97.34,275q-1.05,3.67-2,7.38c-1.21,4.85-2.25,9.76-3.1,14.69-.47,2.75-.91,5.52-1.26,8.29a70.93,70.93,0,0,0-.81,8.48.44.44,0,0,0,.87.09c.47-2.32.67-4.71,1-7.05s.7-4.71,1.09-7.05c.8-4.69,1.72-9.37,2.78-14,1-4.38,2-8.83,3.39-13.1,1-3.06,2.64-6.63,6-7.73,5-1.68,9.59,2.58,13.27,5.34C118.63,270.39,118.74,270.28,118.66,270.21Z" style="fill:#263238"></path><path d="M115.06,267.71s-3.21-9.17,1.43-11c7-2.69,25.18,17.83,21.61,49.27,0,0-14.07-7.75-24.47-16.48s-13-20.11-8.47-23.06S115.06,267.71,115.06,267.71Z" style="fill:#F97316"></path><path d="M136,299.27a24.74,24.74,0,0,0-1.69-3.17c-.6-1.07-1.2-2.15-1.82-3.21-1.21-2.07-2.41-4.14-3.65-6.19-.2-.34-.41-.66-.61-1,0-.12.05-.24.07-.36l.21-.91c.16-.69.28-1.38.4-2.06.26-1.35.49-2.71.85-4,0-.1-.13-.13-.15,0-.29,1.34-.72,2.67-1.11,4-.2.65-.41,1.3-.58,1.95l-.18.68c-1.49-2.46-3-4.9-4.66-7.26a3.29,3.29,0,0,0,.17-1c0-.46.1-.92.16-1.37.12-1,.24-2.07.39-3.1.3-2,.6-4,1.1-6,0-.1-.13-.13-.16,0-.5,2-1,4-1.42,6-.18,1-.36,2-.49,3-.06.49-.12,1-.17,1.49,0,.15,0,.3-.06.45-.5-.71-1-1.42-1.53-2.12-1.61-2.11-3.28-4.18-5-6.24-.06-.08-.2,0-.13.09a112.61,112.61,0,0,1,7.92,11.57c.46.73.91,1.48,1.37,2.22l-.46-.06c-.59-.07-1.18-.11-1.77-.16-1.19-.12-2.37-.22-3.56-.31-2.37-.19-4.75-.34-7.11-.59a.08.08,0,0,0,0,.16c2.4.27,4.78.66,7.17,1L123,283a14.06,14.06,0,0,0,2.71.28c.93,1.51,1.87,3,2.8,4.54-.21,0-.43,0-.63,0h-3.39c-1.53,0-3.06,0-4.58,0-.11,0-.09.16,0,.16,1.55,0,3.09.1,4.64.18.73,0,1.46.08,2.2.13l1.1.08a2.21,2.21,0,0,0,1,0l2.38,3.86c.73,1.19,1.47,2.38,2.22,3.55a28.23,28.23,0,0,0,2.39,3.58C135.91,299.42,136,299.37,136,299.27Z" style="fill:#263238"></path><path d="M129.29,273.86a21.76,21.76,0,0,1-.63,3c-.26,1-.55,2-.88,3,0,.13.14.19.19.06.31-1,.59-2,.83-3s.4-2,.65-3.05C129.47,273.79,129.3,273.76,129.29,273.86Z" style="fill:#263238"></path><path d="M119,280a1.18,1.18,0,0,0-.77-.28l-1.33-.19c-.82-.11-1.65-.2-2.47-.3-1.72-.2-3.43-.36-5.15-.58a.08.08,0,0,0,0,.16c1.62.19,3.23.44,4.85.65.79.1,1.58.22,2.37.31l1.15.13a3.78,3.78,0,0,1,1.3.22A.07.07,0,0,0,119,280Z" style="fill:#263238"></path><path d="M129.27,293.83c-.81-.07-1.63-.1-2.44-.12l-1.23,0-.59,0a3.29,3.29,0,0,1-.77,0c-.11,0-.12.18,0,.16a3.47,3.47,0,0,1,.72,0l.64,0,1.22.07c.81.05,1.63.1,2.44.1A.09.09,0,0,0,129.27,293.83Z" style="fill:#263238"></path><path d="M134.23,290.31l.27-1.38c.16-.91.33-1.81.5-2.72a.08.08,0,0,0-.16,0l-.6,2.65c-.1.44-.2.88-.29,1.33,0,.2-.08.41-.13.61a1.78,1.78,0,0,0-.07.65.1.1,0,0,0,.18.05A3.21,3.21,0,0,0,134.23,290.31Z" style="fill:#263238"></path><polygon points="86.57 310.32 87.55 321.46 90.88 359.1 120.35 359.1 124.51 321.46 125.74 310.32 86.57 310.32" style="fill:#37474f"></polygon><polygon points="86.57 310.32 87.55 321.46 124.51 321.46 125.74 310.32 86.57 310.32" style="fill:#263238"></polygon><rect x="83.65" y="307.28" width="45.01" height="9.04" transform="translate(212.31 623.6) rotate(180)" style="fill:#37474f"></rect></g><g id="freepik--Floor--inject-139"><path d="M715.21,358.83l-86.37-.19-259.09-.2-259.09.2-86.36.19a.25.25,0,0,0-.25.25.25.25,0,0,0,.25.25l86.36.2,259.09.2,259.09-.2,86.37-.2a.25.25,0,0,0,.25-.25A.26.26,0,0,0,715.21,358.83Z" style="fill:#263238"></path></g><g id="freepik--Device--inject-139"><rect x="138.36" y="63.91" width="471.59" height="315.46" style="fill:#ebebeb"></rect><rect x="141.79" y="67.76" width="464.73" height="307.76" style="fill:#263238"></rect><rect x="76.94" y="403.03" width="594.43" height="21.65" style="fill:#dbdbdb"></rect><polygon points="76.94 403.03 138.37 379.37 609.95 379.37 671.38 403.03 76.94 403.03" style="fill:#ebebeb"></polygon><polygon points="143.85 394.64 183.49 379.37 564.83 379.37 604.47 394.64 143.85 394.64" style="fill:#263238"></polygon><rect x="168.06" y="91.14" width="412.21" height="261" style="fill:#fff"></rect><rect x="167.71" y="91.14" width="412.56" height="10.04" style="fill:#455a64"></rect><path d="M175.69,96.16a2.49,2.49,0,1,1-2.49-2.49A2.5,2.5,0,0,1,175.69,96.16Z" style="fill:#c7c7c7"></path><path d="M185.86,96.16a2.49,2.49,0,1,1-2.49-2.49A2.49,2.49,0,0,1,185.86,96.16Z" style="fill:#fff"></path><path d="M196,96.16a2.49,2.49,0,1,1-2.49-2.49A2.49,2.49,0,0,1,196,96.16Z" style="fill:#F97316"></path><path d="M374.59,221.55a10.68,10.68,0,1,0-10.74-10.62A10.66,10.66,0,0,0,374.59,221.55Zm-9.44-10.62a9.38,9.38,0,1,1,9.43,9.32A9.37,9.37,0,0,1,365.15,210.93Zm9.44,10.62a10.68,10.68,0,1,0-10.74-10.62A10.66,10.66,0,0,0,374.59,221.55Zm-9.44-10.62a9.38,9.38,0,1,1,9.43,9.32A9.37,9.37,0,0,1,365.15,210.93Zm9.44,10.62a10.68,10.68,0,1,0-10.74-10.62A10.66,10.66,0,0,0,374.59,221.55Zm-9.44-10.62a9.38,9.38,0,1,1,9.43,9.32A9.37,9.37,0,0,1,365.15,210.93Zm9.5,22.45A22.51,22.51,0,1,0,352,211,22.51,22.51,0,0,0,374.65,233.38ZM362.19,211a12.34,12.34,0,1,1,12.4,12.26A12.35,12.35,0,0,1,362.19,211Zm1.66,0a10.68,10.68,0,1,0,10.61-10.74A10.68,10.68,0,0,0,363.85,210.93Zm1.3,0a9.38,9.38,0,1,1,9.43,9.32A9.37,9.37,0,0,1,365.15,210.93Zm9.44,10.62a10.68,10.68,0,1,0-10.74-10.62A10.66,10.66,0,0,0,374.59,221.55Zm-9.44-10.62a9.38,9.38,0,1,1,9.43,9.32A9.37,9.37,0,0,1,365.15,210.93Zm9.44,10.62a10.68,10.68,0,1,0-10.74-10.62A10.66,10.66,0,0,0,374.59,221.55Zm-9.44-10.62a9.38,9.38,0,1,1,9.43,9.32A9.37,9.37,0,0,1,365.15,210.93Z" style="fill:#F97316"></path><polygon points="370.07 189.32 378.73 189.27 378.21 183.15 370.51 183.19 370.07 189.32" style="fill:#F97316"></polygon><polygon points="386.56 192.14 392.72 198.23 396.68 193.53 391.21 188.12 386.56 192.14" style="fill:#F97316"></polygon><polygon points="396.23 205.79 396.28 214.45 402.4 213.94 402.36 206.24 396.23 205.79" style="fill:#F97316"></polygon><polygon points="393.41 222.29 387.33 228.44 392.02 232.41 397.43 226.93 393.41 222.29" style="fill:#F97316"></polygon><polygon points="379.76 231.95 371.1 232 371.62 238.13 379.31 238.08 379.76 231.95" style="fill:#F97316"></polygon><polygon points="363.27 229.13 357.11 223.05 353.14 227.75 358.62 233.16 363.27 229.13" style="fill:#F97316"></polygon><polygon points="353.6 215.48 353.55 206.83 347.43 207.34 347.47 215.04 353.6 215.48" style="fill:#F97316"></polygon><polygon points="356.42 198.99 362.5 192.84 357.81 188.87 352.4 194.34 356.42 198.99" style="fill:#F97316"></polygon><path d="M481.49,290.28h-213V276.79h213ZM269,289.78H481V277.29H269Z" style="fill:#F97316"></path><rect x="271.23" y="279.51" width="4.82" height="8.06" style="fill:#F97316"></rect><rect x="277.87" y="279.51" width="4.82" height="8.06" style="fill:#F97316"></rect><rect x="284.52" y="279.51" width="4.82" height="8.06" style="fill:#F97316"></rect><rect x="291.17" y="279.51" width="4.82" height="8.06" style="fill:#F97316"></rect><rect x="297.82" y="279.51" width="4.82" height="8.06" style="fill:#F97316"></rect><rect x="304.47" y="279.51" width="4.82" height="8.06" style="fill:#F97316"></rect><rect x="311.12" y="279.51" width="4.82" height="8.06" style="fill:#F97316"></rect><rect x="317.76" y="279.51" width="4.82" height="8.06" style="fill:#F97316"></rect><rect x="324.41" y="279.51" width="4.82" height="8.06" style="fill:#F97316"></rect><rect x="331.06" y="279.51" width="4.82" height="8.06" style="fill:#F97316"></rect><rect x="337.71" y="279.51" width="4.82" height="8.06" style="fill:#F97316"></rect><rect x="344.36" y="279.51" width="4.82" height="8.06" style="fill:#F97316"></rect><text transform="translate(340.51 313.95)" style="font-size:15.232080459594727px;fill:#263238;font-family:Raleway-SemiBold, Raleway;font-weight:600">UP<tspan x="20.94" y="0" style="letter-spacing:-0.024971709856640316em">D</tspan><tspan x="31.47" y="0" style="letter-spacing:-0.06997848859697793em">A</tspan><tspan x="40.68" y="0">TE...</tspan></text><circle cx="374.72" cy="168.02" r="4.71" style="fill:#F97316"></circle><path d="M347.41,174.12a4.48,4.48,0,1,0,4.48-4.48A4.49,4.49,0,0,0,347.41,174.12Z" style="fill:#F97316;opacity:0.9"></path><path d="M333.37,189.68a4.25,4.25,0,1,0,4.24-4.25A4.25,4.25,0,0,0,333.37,189.68Z" style="fill:#F97316;opacity:0.8"></path><circle cx="332.73" cy="210.58" r="4.02" style="fill:#F97316;opacity:0.7000000000000001"></circle><path d="M333.47,230.3a3.79,3.79,0,1,0,3.78-3.78A3.78,3.78,0,0,0,333.47,230.3Z" style="fill:#F97316;opacity:0.6000000000000001"></path><path d="M347.53,246.44a3.55,3.55,0,1,0,3.55-3.56A3.55,3.55,0,0,0,347.53,246.44Z" style="fill:#F97316;opacity:0.5"></path><path d="M371.55,253.18a3.32,3.32,0,1,0,3.32-3.32A3.32,3.32,0,0,0,371.55,253.18Z" style="fill:#F97316;opacity:0.4"></path><path d="M395.88,245.92a3.09,3.09,0,1,0,3.09-3.09A3.09,3.09,0,0,0,395.88,245.92Z" style="fill:#F97316;opacity:0.30000000000000004"></path><path d="M409.84,229a2.86,2.86,0,1,0,2.86-2.86A2.86,2.86,0,0,0,409.84,229Z" style="fill:#F97316;opacity:0.2"></path><path d="M414.47,210.16a2.63,2.63,0,1,0,2.63-2.63A2.62,2.62,0,0,0,414.47,210.16Z" style="fill:#F97316;opacity:0.1"></path><circle cx="410.29" cy="185.91" r="2.4" style="fill:#F97316;opacity:0.05"></circle><circle cx="393.98" cy="172.27" r="2.17" style="fill:#F97316;opacity:0.01"></circle></g><g id="freepik--Arrows--inject-139"><path d="M593.38,61.12,587,54.47a39.57,39.57,0,0,1,66.74,25.75l-9.16.68a30.38,30.38,0,0,0-51.24-19.78Z" style="fill:#F97316"></path><polygon points="636.3 74.79 645.64 98.67 661.65 78.66 636.3 74.79" style="fill:#F97316"></polygon><g style="opacity:0.2"><path d="M593.38,61.12,587,54.47a39.57,39.57,0,0,1,66.74,25.75l-9.16.68a30.38,30.38,0,0,0-51.24-19.78Z"></path><polygon points="636.3 74.79 645.64 98.67 661.65 78.66 636.3 74.79"></polygon></g><path d="M597.82,116.54A39.78,39.78,0,0,1,576,84l9.16-.68a30.38,30.38,0,0,0,52.58,18.41l6.74,6.24A39.77,39.77,0,0,1,597.82,116.54Z" style="fill:#F97316"></path><polygon points="593.44 89.44 584.11 65.56 568.09 85.58 593.44 89.44" style="fill:#F97316"></polygon></g><g id="freepik--Shadow--inject-139"><ellipse cx="474.03" cy="452.8" rx="96.83" ry="9.45" style="fill:#ebebeb"></ellipse></g><g id="freepik--Cloud--inject-139"><path d="M461.43,221.86a13.89,13.89,0,0,0,12.85,13.85v0h78.65a16.32,16.32,0,0,0,1.53-32.57,27.5,27.5,0,0,0-53.3-8.6,16.13,16.13,0,0,0-7.3-1.73,16.33,16.33,0,0,0-16.29,15.32,12.84,12.84,0,0,0-2.26-.19A13.89,13.89,0,0,0,461.43,221.86Z" style="fill:#F97316"></path><rect x="508.87" y="218.55" width="20.03" height="17.2" style="fill:#fff"></rect><polygon points="501.99 218.55 535.77 218.55 518.88 201.7 501.99 218.55" style="fill:#fff"></polygon></g></svg>